<?xml version="1.0" standalone="no"?>
<!DOCTYPE svg PUBLIC "-//W3C//DTD SVG 20010904//EN"
 "http://www.w3.org/TR/2001/REC-SVG-20010904/DTD/svg10.dtd">
<svg version="1.0" xmlns="http://www.w3.org/2000/svg"
 width="225.000000pt" height="225.000000pt" viewBox="0 0 225.000000 225.000000"
 preserveAspectRatio="xMidYMid meet">
<metadata>
Created by potrace 1.14, written by Peter Selinger 2001-2017
</metadata>
<g transform="translate(0.000000,225.000000) scale(0.100000,-0.100000)"
fill="#000000" stroke="none">
<path d="M1923 1720 c0 -47 2 -66 4 -42 2 23 2 61 0 85 -2 23 -4 4 -4 -43z"/>
<path d="M1430 1640 l0 -40 -86 0 c-64 0 -85 -3 -82 -12 3 -9 40 -14 126 -16
142 -3 141 -1 90 -103 l-32 -64 -24 53 c-13 28 -28 52 -33 52 -15 0 -10 -39
12 -82 l21 -40 -33 -34 c-18 -18 -56 -46 -86 -61 -47 -25 -70 -53 -43 -53 19
0 86 38 136 78 l50 39 34 -28 c63 -53 160 -86 160 -55 0 9 -6 16 -12 16 -18 0
-109 45 -137 68 l-24 19 37 73 c20 40 36 83 36 96 0 21 5 24 40 24 29 0 40 4
40 15 0 12 -15 15 -74 15 l-74 0 -7 40 c-4 25 -12 40 -21 40 -10 0 -14 -12
-14 -40z"/>
<path d="M1924 1250 c0 -58 1 -81 3 -52 2 28 2 76 0 105 -2 28 -3 5 -3 -53z"/>
<path d="M751 1197 c-21 -55 -120 -323 -123 -332 -2 -5 2 -12 7 -13 6 -2 19
20 30 50 l21 53 79 0 78 0 20 -57 c10 -32 23 -58 28 -58 5 0 9 3 9 8 0 24
-117 362 -128 366 -7 3 -16 -4 -21 -17z m49 -112 c13 -38 25 -76 28 -82 3 -10
-13 -13 -63 -13 -37 0 -65 4 -63 8 2 4 16 45 32 90 16 45 33 79 37 75 3 -5 17
-39 29 -78z"/>
<path d="M1763 1063 c15 -2 39 -2 55 0 15 2 2 4 -28 4 -30 0 -43 -2 -27 -4z"/>
<path d="M1193 1053 c15 -2 37 -2 50 0 12 2 0 4 -28 4 -27 0 -38 -2 -22 -4z"/>
<path d="M1313 1053 c20 -2 54 -2 75 0 20 2 3 4 -38 4 -41 0 -58 -2 -37 -4z"/>
<path d="M1720 898 c-3 -31 -1 -53 3 -49 5 5 7 30 5 57 l-3 49 -5 -57z"/>
</g>
</svg>
